<mxfile host="app.diagrams.net" modified="2023-10-19T05:54:28.977Z" agent="Mozilla/5.0 (Windows NT 10.0; Win64; x64) AppleWebKit/537.36 (KHTML, like Gecko) Chrome/117.0.0.0 Safari/537.36 Edg/117.0.2045.31" version="22.0.4" etag="jpobOyFpaFicdjAUq6oD" type="github">
  <diagram name="第 1 页" id="PjZs5kLfQp9zXu6E3ntm">
    <mxGraphModel>
      <root>
        <mxCell id="0" />
        <mxCell id="1" parent="0" />
      </root>
    </mxGraphModel>
  </diagram>
</mxfile>
